<svg xmlns="http://www.w3.org/2000/svg" version="1.1" xmlns:xlink="http://www.w3.org/1999/xlink" xmlns:svgjs="http://svgjs.com/svgjs" width="1440" height="560" preserveAspectRatio="none" viewBox="0 0 1440 560"><g mask="url(&quot;#SvgjsMask1061&quot;)" fill="none"><rect width="1440" height="560" x="0" y="0" fill="#0e2a47"></rect><use xlink:href="#SvgjsG1070" transform="translate(0, 0)" fill="#0f457b"></use><use xlink:href="#SvgjsG1070" transform="translate(0, 480)" fill="#0f457b"></use><use xlink:href="#SvgjsG1070" transform="translate(480, 0)" fill="#0f457b"></use><use xlink:href="#SvgjsG1070" transform="translate(480, 480)" fill="#0f457b"></use><use xlink:href="#SvgjsG1070" transform="translate(960, 0)" fill="#0f457b"></use><use xlink:href="#SvgjsG1070" transform="translate(960, 480)" fill="#0f457b"></use></g><defs><mask id="SvgjsMask1061"><rect width="1440" height="560" fill="#ffffff"></rect></mask><g id="SvgjsG1062"><path d="M6.498 9.304L12.139 3.663l1.565 1.566-5.641 5.641z"></path><path d="M6.8 0.457h2.541v8.028H6.8z"></path><path d="M8.072 10.876L2.429 5.238l1.563-1.566L9.636 9.313zM1.2 13.277h13.733v2.266H1.2z"></path><path d="M0.733 9.143h2.267v6.4h-2.267z m12.267 0h2.267v6.4h-2.267z"></path></g><g id="SvgjsG1067"><path d="M7.713 15.485C3.459 15.485 0 12.025 0 7.768 0 3.513 3.459 0.051 7.713 0.051S15.432 3.513 15.432 7.768c0 4.257-3.465 7.716-7.719 7.717z m0-1.91c3.201 0 5.81-2.604 5.81-5.809 0-3.199-2.61-5.807-5.81-5.807-3.202 0-5.804 2.609-5.804 5.807-0.001 3.206 2.602 5.809 5.804 5.809z"></path><path d="M7.753 8.787a0.574 0.574 0 0 1-0.554-0.042 0.578 0.578 0 0 1-0.259-0.399L6.931 3.862a0.58 0.58 0 0 1 1.162 0v3.478l2.975-1.4a0.578 0.578 0 0 1 0.773 0.275c0.138 0.292 0.011 0.637-0.276 0.774l-3.81 1.798z"></path></g><g id="SvgjsG1065"><path d="M2.524 8.637H0.014V7.308h2.51v1.329zM3.656 4.576L1.884 2.804l0.935-0.935 1.772 1.772-0.935 0.935z m0 6.817l0.935 0.935-1.772 1.773-0.934-0.936 1.771-1.772z m4.997-8.884h-1.33V-0.002h1.33v2.511z m-1.33 10.952h1.33v2.51h-1.33v-2.509zM12.344 4.576l-0.96-0.935 1.796-1.772 0.935 0.935-1.772 1.772z m0 6.792l1.771 1.797-0.935 0.936-1.771-1.774 0.936-0.96z m3.643-4.06v1.329h-2.51V7.308h2.509z"></path><path d="M3.702 7.984a4.184 4.184 0 1 0 8.368 0 4.184 4.184 0 1 0-8.368 0"></path></g><g id="SvgjsG1063"><path d="M15.233 9.431c0.295 0 0.569-0.239 0.61-0.532 0 0 0.056-0.411 0.056-0.899s-0.056-0.899-0.056-0.899c-0.041-0.292-0.315-0.531-0.61-0.53h-1.524c-0.295 0-0.602-0.188-0.681-0.418s-0.188-0.967 0.021-1.176l1.078-1.077c0.209-0.209 0.225-0.565 0.036-0.792l-1.268-1.268c-0.227-0.189-0.583-0.173-0.792 0.036l-1.078 1.077c-0.208 0.209-0.556 0.293-0.772 0.187s-0.822-0.552-0.821-0.847V0.767c0-0.295-0.239-0.569-0.531-0.61 0 0-0.411-0.057-0.9-0.056s-0.899 0.057-0.899 0.056c-0.293 0.04-0.532 0.315-0.532 0.61v1.524c0 0.295-0.188 0.601-0.418 0.681s-0.967 0.188-1.176-0.021l-1.078-1.078C3.689 1.665 3.333 1.649 3.107 1.837l-1.268 1.268c-0.189 0.227-0.173 0.583 0.036 0.792l1.077 1.078c0.209 0.209 0.293 0.556 0.187 0.772s-0.552 0.822-0.847 0.822H0.767c-0.295 0-0.569 0.239-0.61 0.531 0 0-0.057 0.411-0.056 0.899s0.057 0.899 0.056 0.9c0.04 0.293 0.315 0.532 0.61 0.532h1.525c0.295 0 0.601 0.188 0.681 0.417 0.079 0.23 0.188 0.967-0.02 1.176l-1.078 1.077C1.667 12.311 1.651 12.667 1.84 12.893l1.267 1.268c0.227 0.189 0.583 0.173 0.792-0.036l1.077-1.077c0.209-0.208 0.556-0.292 0.772-0.187s0.821 0.553 0.822 0.848v1.524c0 0.295 0.239 0.569 0.532 0.61 0 0 0.411 0.057 0.899 0.057s0.899-0.056 0.899-0.057c0.293-0.04 0.531-0.315 0.532-0.609v-1.524c0-0.295 0.188-0.602 0.418-0.681 0.23-0.079 0.967-0.188 1.176 0.021l1.077 1.077c0.209 0.209 0.565 0.225 0.792 0.036l1.268-1.267c0.189-0.227 0.173-0.583-0.036-0.792l-1.078-1.077c-0.209-0.209-0.293-0.557-0.186-0.773 0.106-0.216 0.552-0.822 0.847-0.822h1.525zM8 10.892c-1.597 0-2.891-1.294-2.891-2.892 0-1.596 1.295-2.891 2.891-2.891S10.892 6.404 10.892 8 9.597 10.892 8 10.892z"></path></g><g id="SvgjsG1064"><path d="M11.675 13.031H3.563V2.436h8.112v10.595z m-4.054 1.54a0.457 0.457 0 1 1 0-0.912 0.457 0.457 0 0 1 0 0.912zM6.921 1.287h1.395c0.196 0 0.196 0.356 0 0.356h-1.397c-0.199 0-0.199-0.356 0-0.356zM11.495 0.409H3.744C3.413 0.409 3.143 0.761 3.143 1.191V14.276c0 0.427 0.267 0.779 0.601 0.778h7.751c0.332 0 0.604-0.35 0.605-0.778V1.191c0-0.432-0.272-0.782-0.605-0.782z" fill-rule="evenodd"></path></g><g id="SvgjsG1066"><path d="M9.412 5.113c1.273 0 2.378 0.701 2.988 1.734l3.596 0.004v-1.949c0-0.725-0.584-1.314-1.299-1.314H1.295C0.578 3.588 0 4.176 0 4.902l0.004 1.932 6.418 0.005c0.614-1.029 1.715-1.725 2.99-1.725M3.361 2.97h-1.192l-0.138 0.434h1.429l-0.099-0.434zM14.11 2.738h-1.587L12.242 3.408H14.368l-0.258-0.67zM8.662 3.177h-1.366V2.508h1.366v0.669zM9.914 2.24h-3.857l-0.795 1.176h5.38L9.914 2.24z m2.672 4.955c0.199 0.443 0.316 0.93 0.316 1.449 0 1.949-1.563 3.531-3.49 3.531-1.93 0-3.493-1.582-3.493-3.531 0-0.519 0.116-1.006 0.316-1.451H0V12.514c0 0.721 0.577 1.309 1.295 1.309h13.401c0.716 0 1.299-0.588 1.3-1.309L16 7.195H12.586z"></path><path d="M11.315 7.484a1.717 1.717 0 0 0-0.199-0.278c-0.408-0.496-1.018-0.822-1.704-0.823-0.69 0-1.299 0.324-1.707 0.818-0.075 0.09-0.144 0.182-0.203 0.283-0.205 0.34-0.33 0.734-0.329 1.16 0 1.246 1.002 2.258 2.237 2.258 1.23 0 2.232-1.013 2.232-2.259 0-0.427-0.122-0.819-0.329-1.16"></path></g><g id="SvgjsG1069"><path d="M9.46 6.313c-1.577 0-2.86 1.283-2.86 2.86s1.283 2.86 2.86 2.86 2.86-1.283 2.86-2.86-1.283-2.86-2.86-2.86z"></path><path d="M13.26 3.839l-0.624-1.912h-6.352L5.661 3.839H0v10.668h16v-10.668H13.26zM3.744 6.743H1.543v-1.176H3.744v1.176z m5.716 6.624c-2.312 0-4.193-1.881-4.193-4.194s1.881-4.194 4.193-4.193 4.193 1.881 4.194 4.193-1.88 4.194-4.193 4.194z"></path></g><g id="SvgjsG1068"><path d="M15.819 2.872L8 9.063 0.182 2.872z m0 8.863L11.116 8l4.703-3.734zM0.161 4.266l4.702 3.734L0.161 11.735z"></path><path d="M10.255 8.663L8.011 10.434 5.766 8.663 0.182 13.068h15.656z"></path></g><g id="SvgjsG1070"><use xlink:href="#SvgjsG1062" transform="translate(0, 0) scale(2)" fill="#0f457b"></use><use xlink:href="#SvgjsG1063" transform="translate(0, 48) scale(2)" fill="#0f457b"></use><use xlink:href="#SvgjsG1064" transform="translate(0, 96) scale(2)" fill="#0f457b"></use><use xlink:href="#SvgjsG1065" transform="translate(0, 144) scale(2)" fill="#0f457b"></use><use xlink:href="#SvgjsG1066" transform="translate(0, 192) scale(2)" fill="#0f457b"></use><use xlink:href="#SvgjsG1067" transform="translate(0, 240) scale(2)" fill="#0f457b"></use><use xlink:href="#SvgjsG1062" transform="translate(0, 288) scale(2)" fill="#0f457b"></use><use xlink:href="#SvgjsG1068" transform="translate(0, 336) scale(2)" fill="#0f457b"></use><use xlink:href="#SvgjsG1063" transform="translate(0, 384) scale(2)" fill="#0f457b"></use><use xlink:href="#SvgjsG1064" transform="translate(0, 432) scale(2)" fill="#0f457b"></use><use xlink:href="#SvgjsG1066" transform="translate(48, 0) scale(2)" fill="#0f457b"></use><use xlink:href="#SvgjsG1063" transform="translate(48, 48) scale(2)" fill="#0f457b"></use><use xlink:href="#SvgjsG1069" transform="translate(48, 96) scale(2)" fill="#0f457b"></use><use xlink:href="#SvgjsG1065" transform="translate(48, 144) scale(2)" fill="#0f457b"></use><use xlink:href="#SvgjsG1069" transform="translate(48, 192) scale(2)" fill="#0f457b"></use><use xlink:href="#SvgjsG1064" transform="translate(48, 240) scale(2)" fill="#0f457b"></use><use xlink:href="#SvgjsG1066" transform="translate(48, 288) scale(2)" fill="#0f457b"></use><use xlink:href="#SvgjsG1067" transform="translate(48, 336) scale(2)" fill="#0f457b"></use><use xlink:href="#SvgjsG1065" transform="translate(48, 384) scale(2)" fill="#0f457b"></use><use xlink:href="#SvgjsG1066" transform="translate(48, 432) scale(2)" fill="#0f457b"></use><use xlink:href="#SvgjsG1064" transform="translate(96, 0) scale(2)" fill="#0f457b"></use><use xlink:href="#SvgjsG1069" transform="translate(96, 48) scale(2)" fill="#0f457b"></use><use xlink:href="#SvgjsG1069" transform="translate(96, 96) scale(2)" fill="#0f457b"></use><use xlink:href="#SvgjsG1067" transform="translate(96, 144) scale(2)" fill="#0f457b"></use><use xlink:href="#SvgjsG1064" transform="translate(96, 192) scale(2)" fill="#0f457b"></use><use xlink:href="#SvgjsG1064" transform="translate(96, 240) scale(2)" fill="#0f457b"></use><use xlink:href="#SvgjsG1065" transform="translate(96, 288) scale(2)" fill="#0f457b"></use><use xlink:href="#SvgjsG1067" transform="translate(96, 336) scale(2)" fill="#0f457b"></use><use xlink:href="#SvgjsG1063" transform="translate(96, 384) scale(2)" fill="#0f457b"></use><use xlink:href="#SvgjsG1062" transform="translate(96, 432) scale(2)" fill="#0f457b"></use><use xlink:href="#SvgjsG1066" transform="translate(144, 0) scale(2)" fill="#0f457b"></use><use xlink:href="#SvgjsG1067" transform="translate(144, 48) scale(2)" fill="#0f457b"></use><use xlink:href="#SvgjsG1067" transform="translate(144, 96) scale(2)" fill="#0f457b"></use><use xlink:href="#SvgjsG1064" transform="translate(144, 144) scale(2)" fill="#0f457b"></use><use xlink:href="#SvgjsG1068" transform="translate(144, 192) scale(2)" fill="#0f457b"></use><use xlink:href="#SvgjsG1067" transform="translate(144, 240) scale(2)" fill="#0f457b"></use><use xlink:href="#SvgjsG1068" transform="translate(144, 288) scale(2)" fill="#0f457b"></use><use xlink:href="#SvgjsG1066" transform="translate(144, 336) scale(2)" fill="#0f457b"></use><use xlink:href="#SvgjsG1069" transform="translate(144, 384) scale(2)" fill="#0f457b"></use><use xlink:href="#SvgjsG1069" transform="translate(144, 432) scale(2)" fill="#0f457b"></use><use xlink:href="#SvgjsG1062" transform="translate(192, 0) scale(2)" fill="#0f457b"></use><use xlink:href="#SvgjsG1069" transform="translate(192, 48) scale(2)" fill="#0f457b"></use><use xlink:href="#SvgjsG1067" transform="translate(192, 96) scale(2)" fill="#0f457b"></use><use xlink:href="#SvgjsG1063" transform="translate(192, 144) scale(2)" fill="#0f457b"></use><use xlink:href="#SvgjsG1069" transform="translate(192, 192) scale(2)" fill="#0f457b"></use><use xlink:href="#SvgjsG1067" transform="translate(192, 240) scale(2)" fill="#0f457b"></use><use xlink:href="#SvgjsG1063" transform="translate(192, 288) scale(2)" fill="#0f457b"></use><use xlink:href="#SvgjsG1062" transform="translate(192, 336) scale(2)" fill="#0f457b"></use><use xlink:href="#SvgjsG1062" transform="translate(192, 384) scale(2)" fill="#0f457b"></use><use xlink:href="#SvgjsG1068" transform="translate(192, 432) scale(2)" fill="#0f457b"></use><use xlink:href="#SvgjsG1062" transform="translate(240, 0) scale(2)" fill="#0f457b"></use><use xlink:href="#SvgjsG1066" transform="translate(240, 48) scale(2)" fill="#0f457b"></use><use xlink:href="#SvgjsG1066" transform="translate(240, 96) scale(2)" fill="#0f457b"></use><use xlink:href="#SvgjsG1064" transform="translate(240, 144) scale(2)" fill="#0f457b"></use><use xlink:href="#SvgjsG1064" transform="translate(240, 192) scale(2)" fill="#0f457b"></use><use xlink:href="#SvgjsG1065" transform="translate(240, 240) scale(2)" fill="#0f457b"></use><use xlink:href="#SvgjsG1063" transform="translate(240, 288) scale(2)" fill="#0f457b"></use><use xlink:href="#SvgjsG1065" transform="translate(240, 336) scale(2)" fill="#0f457b"></use><use xlink:href="#SvgjsG1065" transform="translate(240, 384) scale(2)" fill="#0f457b"></use><use xlink:href="#SvgjsG1067" transform="translate(240, 432) scale(2)" fill="#0f457b"></use><use xlink:href="#SvgjsG1065" transform="translate(288, 0) scale(2)" fill="#0f457b"></use><use xlink:href="#SvgjsG1062" transform="translate(288, 48) scale(2)" fill="#0f457b"></use><use xlink:href="#SvgjsG1063" transform="translate(288, 96) scale(2)" fill="#0f457b"></use><use xlink:href="#SvgjsG1064" transform="translate(288, 144) scale(2)" fill="#0f457b"></use><use xlink:href="#SvgjsG1067" transform="translate(288, 192) scale(2)" fill="#0f457b"></use><use xlink:href="#SvgjsG1069" transform="translate(288, 240) scale(2)" fill="#0f457b"></use><use xlink:href="#SvgjsG1063" transform="translate(288, 288) scale(2)" fill="#0f457b"></use><use xlink:href="#SvgjsG1069" transform="translate(288, 336) scale(2)" fill="#0f457b"></use><use xlink:href="#SvgjsG1065" transform="translate(288, 384) scale(2)" fill="#0f457b"></use><use xlink:href="#SvgjsG1068" transform="translate(288, 432) scale(2)" fill="#0f457b"></use><use xlink:href="#SvgjsG1066" transform="translate(336, 0) scale(2)" fill="#0f457b"></use><use xlink:href="#SvgjsG1066" transform="translate(336, 48) scale(2)" fill="#0f457b"></use><use xlink:href="#SvgjsG1066" transform="translate(336, 96) scale(2)" fill="#0f457b"></use><use xlink:href="#SvgjsG1065" transform="translate(336, 144) scale(2)" fill="#0f457b"></use><use xlink:href="#SvgjsG1063" transform="translate(336, 192) scale(2)" fill="#0f457b"></use><use xlink:href="#SvgjsG1068" transform="translate(336, 240) scale(2)" fill="#0f457b"></use><use xlink:href="#SvgjsG1064" transform="translate(336, 288) scale(2)" fill="#0f457b"></use><use xlink:href="#SvgjsG1068" transform="translate(336, 336) scale(2)" fill="#0f457b"></use><use xlink:href="#SvgjsG1069" transform="translate(336, 384) scale(2)" fill="#0f457b"></use><use xlink:href="#SvgjsG1069" transform="translate(336, 432) scale(2)" fill="#0f457b"></use><use xlink:href="#SvgjsG1064" transform="translate(384, 0) scale(2)" fill="#0f457b"></use><use xlink:href="#SvgjsG1065" transform="translate(384, 48) scale(2)" fill="#0f457b"></use><use xlink:href="#SvgjsG1066" transform="translate(384, 96) scale(2)" fill="#0f457b"></use><use xlink:href="#SvgjsG1068" transform="translate(384, 144) scale(2)" fill="#0f457b"></use><use xlink:href="#SvgjsG1068" transform="translate(384, 192) scale(2)" fill="#0f457b"></use><use xlink:href="#SvgjsG1066" transform="translate(384, 240) scale(2)" fill="#0f457b"></use><use xlink:href="#SvgjsG1063" transform="translate(384, 288) scale(2)" fill="#0f457b"></use><use xlink:href="#SvgjsG1066" transform="translate(384, 336) scale(2)" fill="#0f457b"></use><use xlink:href="#SvgjsG1064" transform="translate(384, 384) scale(2)" fill="#0f457b"></use><use xlink:href="#SvgjsG1062" transform="translate(384, 432) scale(2)" fill="#0f457b"></use><use xlink:href="#SvgjsG1069" transform="translate(432, 0) scale(2)" fill="#0f457b"></use><use xlink:href="#SvgjsG1063" transform="translate(432, 48) scale(2)" fill="#0f457b"></use><use xlink:href="#SvgjsG1066" transform="translate(432, 96) scale(2)" fill="#0f457b"></use><use xlink:href="#SvgjsG1063" transform="translate(432, 144) scale(2)" fill="#0f457b"></use><use xlink:href="#SvgjsG1067" transform="translate(432, 192) scale(2)" fill="#0f457b"></use><use xlink:href="#SvgjsG1064" transform="translate(432, 240) scale(2)" fill="#0f457b"></use><use xlink:href="#SvgjsG1067" transform="translate(432, 288) scale(2)" fill="#0f457b"></use><use xlink:href="#SvgjsG1069" transform="translate(432, 336) scale(2)" fill="#0f457b"></use><use xlink:href="#SvgjsG1064" transform="translate(432, 384) scale(2)" fill="#0f457b"></use><use xlink:href="#SvgjsG1064" transform="translate(432, 432) scale(2)" fill="#0f457b"></use></g></defs></svg>